<?xml version="1.0" encoding="utf-8"?>
<!-- Generator: Adobe Illustrator 26.0.0, SVG Export Plug-In . SVG Version: 6.00 Build 0)  -->
<svg version="1.1" id="Layer_1" xmlns="http://www.w3.org/2000/svg" xmlns:xlink="http://www.w3.org/1999/xlink" x="0px" y="0px"
	 viewBox="0 0 2000 2000" style="enable-background:new 0 0 2000 2000;" xml:space="preserve">
<style type="text/css">
	.st0{fill:#111116;}
	.st1{fill:#00A99D;}
</style>
<g>
	<g>
		<path class="st0" d="M610.22,1065.78h44.64c13.23,0,23.51,2.76,30.49,8.08c9.19,6.06,13.23,15.98,13.23,27.18
			c0,12.49-6.44,22.22-16.72,27.92c22.78,7.72,23.7,26.82,23.7,32.69c0,12.3-5.16,23.87-14.71,30.49
			c-10.83,8.26-19.46,9.55-38.75,9.55h-41.88V1065.78z M637.6,1120.15h15.24c3.85,0,8.26-0.37,11.75-1.84
			c5.31-2.75,7.71-7.16,7.71-13.59c0-6.98-3.68-11.21-7.54-12.86c-3.13-1.48-7.15-2.02-12.12-2.02H637.6V1120.15z M637.6,1177.64
			h19.27c3.49,0,8.46-0.19,12.68-2.02c5.52-2.39,9.74-6.98,9.74-15.61c0-7.9-4.05-12.68-9.55-15.06c-4.41-1.84-9.01-1.84-13.79-1.84
			H637.6V1177.64z"/>
		<path class="st0" d="M724.02,1065.78h43.16c16.91,0,41.52,1.66,57.68,23.51c9.91,12.49,13.96,27.56,13.96,44.27
			c0,38.39-20.21,68.14-69.61,68.14h-45.2V1065.78z M751.41,1177.64h19.27c29.4,0,40.79-19.29,40.79-43.72
			c0-10.65-2.76-22.03-9.19-30.49c-5.7-7.34-14.88-13.59-31.41-13.59h-19.46V1177.64z"/>
		<path class="st0" d="M858.37,1065.78h76.22v24.07h-48.84v30.85h47.92v24.07h-47.92v32.88h48.84v24.06h-76.22V1065.78z"/>
		<path class="st0" d="M1143.34,1156.15c-8.26,28.1-34.73,48.12-66.5,48.12c-41.5,0-71.26-32.88-71.26-70.71
			c0-36.18,28.09-70.35,71.08-70.35c39.12,0.18,61.34,29.02,66.67,48.86h-28.84c-4.22-9.37-16.36-24.61-38.03-24.79
			c-26.44,0-43.53,22.22-43.53,46.28c0,24.79,17.81,46.65,43.72,46.65c24.24,0,35.26-19.11,37.83-24.07H1143.34z"/>
		<path class="st0" d="M1161.96,1065.78h76.22v24.07h-48.84v30.85h47.92v24.07h-47.92v32.88h48.84v24.06h-76.22V1065.78z"/>
		<path class="st0" d="M1279.64,1159.45c0.92,18.37,13.23,21.86,19.1,21.86c10.47,0,18.54-8.46,18.54-18.01
			c0-11.56-9.72-14.51-28.65-22.03c-10.28-3.68-33.98-12.13-33.98-37.84c0-26.08,22.97-40.22,45.01-40.22
			c18.01,0,41.88,9.55,42.97,39.67h-27c-1.09-6.24-3.49-16.71-16.89-16.71c-8.99,0-16.72,6.24-16.72,15.43
			c-0.17,10.1,7.17,12.68,30.12,22.22c20.77,8.99,32.33,18.92,32.33,38.2c0,21.86-13.4,42.24-45.37,42.24
			c-30.85,0-46.83-18.55-46.65-44.81H1279.64z"/>
		<path class="st0" d="M1362.4,1065.78h27.38v135.92h-27.38V1065.78z"/>
	</g>
	<g>
		<path class="st1" d="M610.22,1292.83h52.85c27.13,0,42.7,4.25,52.14,11.09c14.39,10.38,22.18,28.08,22.18,47.43
			c0,12.74-3.54,24.07-9.44,32.56c-7.55,11.08-17.46,16.04-28.78,18.88l38.93,64.65h-36.82l-46.95-81.16h6.84
			c11.56,0,24.08-0.71,31.38-6.38c6.84-5.66,11.09-14.86,11.09-25.48c0-10.61-5.19-20.29-12.98-25.25
			c-6.37-4.01-14.86-5.42-24.77-5.42h-20.53v143.69h-35.15V1292.83z"/>
		<path class="st1" d="M751.37,1381.56c0-55.93,42.94-92.02,91.54-92.02c52.85,0,91.79,41.05,91.79,90.61
			c0,49.55-38.69,90.61-92.01,90.61c-53.56,0-91.32-42.24-91.32-88.96V1381.56z M786.52,1380.14c0,31.85,22.89,59.69,56.88,59.69
			c35.39,0,56.15-30.67,56.15-59.46c0-29.26-20.76-59.94-56.39-59.94c-34.92,0-56.64,28.79-56.64,59.46V1380.14z"/>
		<path class="st1" d="M994.71,1292.83v107.36c0,8.73,0.22,17.7,4.95,26.43c4.25,7.55,12.05,13.21,23.61,13.21
			c11.78,0,19.58-5.42,23.34-12.51c4.96-8.5,4.96-17.7,4.96-27.13v-107.36h35.15v107.36c0,25.95-4.95,41.53-18.4,53.79
			c-10.62,10.15-25.48,16.76-44.83,16.76c-12.5,0-32.56-3.31-45.53-16.76c-16.06-15.33-18.42-30.44-18.42-53.79v-107.36H994.71z"/>
		<path class="st1" d="M1119.34,1292.83h97.91v30.91h-62.76v39.64h61.58v30.91h-61.58v42.23h62.76v30.91h-97.91V1292.83z"/>
		<path class="st1" d="M1356.73,1413.87l-0.69-121.04h33.74v174.61h-31.16l-80.45-120.81l0.69,120.81h-33.72v-174.61h31.38
			L1356.73,1413.87z"/>
	</g>
	<rect x="607.53" y="1241.11" class="st0" width="784.95" height="16.79"/>
	<g>
		<path class="st0" d="M977.36,912.23c4.03,1.92,7.68,4.22,10.94,7.1H607.47v-15.54h351.66c5.76,2.69,11.71,5.56,17.84,8.25
			C977.17,912.23,977.17,912.23,977.36,912.23z"/>
		<path class="st0" d="M1392.53,903.78v15.54h-365.86c3.64-3.26,7.67-5.95,12.28-8.06c0,0,0.19-0.19,0.38-0.19
			c5.37-2.49,10.55-4.8,15.73-7.29H1392.53z"/>
	</g>
	<g>
		<g>
			<path class="st1" d="M1306.88,897.41L1306.88,897.41L1306.88,897.41c0-42.87,34.75-77.62,77.62-77.62h0v0
				C1384.5,862.65,1349.75,897.41,1306.88,897.41z"/>
			<path class="st1" d="M1274.44,929.42L1274.44,929.42L1274.44,929.42c42.87,0,77.62,34.75,77.62,77.62v0h0
				C1309.19,1007.04,1274.44,972.29,1274.44,929.42z"/>
		</g>
		<g>
			<path class="st1" d="M693.12,927.56L693.12,927.56L693.12,927.56c0,42.87-34.75,77.62-77.62,77.62h0v0
				C615.5,962.31,650.25,927.56,693.12,927.56z"/>
			<path class="st1" d="M725.56,895.55L725.56,895.55L725.56,895.55c-42.87,0-77.62-34.75-77.62-77.62v0h0
				C690.81,817.93,725.56,852.68,725.56,895.55z"/>
		</g>
	</g>
	<g>
		<path class="st0" d="M1204.47,543.45c-26.27-4.19-51.61,4.69-69.44,21.83c-38.72-22.77-85.14-36.03-135.06-36.03
			c-50.61,0-97.78,13.7-136.81,37.03c-0.03,0.02-0.07,0.04-0.1,0.06c-15.97-14.48-37.54-22.74-60.79-21.03
			c-45.05,3.3-78.88,42.48-75.58,87.54c1.9,25.96,15.71,48.18,35.7,61.76c0,0.01-0.01,0.03-0.01,0.04
			c-4.44,16.2-6.76,33.16-6.76,50.55c0,51.42,20.46,98.72,54.55,135.81c-9.45,6.01-18.02,13.64-25.21,22.77l-0.19,0.19l-0.56,0.75
			c3.44,4.82,7.07,9.63,11.51,14.58c19.58,24.02,47.98,50.3,89.58,76.01c35.47,22.08,83.83,27.4,108.97-0.19
			c8.45-9.2,12.07-21.83,12.07-34.09v-0.81c0-6.19-1-12.26-2.94-17.95c-2.94-8.88-8.07-16.89-15.08-22.96
			c-3.25-2.88-6.88-5.13-10.95-7.07c-0.19,0-0.19,0-0.37-0.19c-6.13-2.69-12.07-5.57-17.83-8.26
			c-17.08-8.07-32.22-16.33-45.85-24.33c-26.77-15.95-58.24-17.7-85.58-7.13c-33.34-34.34-53.36-78.7-53.36-127.12
			c0-108.72,101.22-197.18,225.58-197.18c98.28,0,182.1,55.24,212.94,132c2.75,6.82,5.07,13.82,6.94,20.96
			c3.75,14.2,5.76,29.03,5.76,44.23c0,47.23-19.14,90.58-50.92,124.55c-24.65-6.32-51.55-3.13-75.07,10.63
			c-13.26,7.69-28.03,15.51-44.54,23.4c-5.19,2.5-10.32,4.82-15.7,7.32c-0.19,0-0.38,0.19-0.38,0.19
			c-4.63,2.06-8.63,4.75-12.32,8.01c-6.44,6.19-11.2,14.08-13.89,22.71c-1.69,5.38-2.57,11.07-2.57,16.83v2.06
			c0.12,12.2,3.75,24.59,12.07,33.47c25.34,27.21,73.07,21.83,108.6,0c41.04-25.34,69.44-51.42,89.02-75.07
			c3.82-4.38,7.26-8.82,10.32-13.01l-0.56-0.75c-0.38-0.63-0.94-1.19-1.56-1.75c-9.63-11.76-21.39-20.89-34.41-27.15
			c31.78-36.41,50.67-82.01,50.67-131.43c0-18.2-2.57-35.97-7.44-52.86c18.39-12.2,31.84-31.84,35.6-55.43
			C1279.54,592.31,1249.08,550.46,1204.47,543.45z"/>
		<path class="st0" d="M942.12,663.8c2.24-0.34,4.42,0.18,6.54,1.3c-5.46-12.39-14.4-21.2-29.25-18.91
			c-42.49,6.56-69.6,84.09-22.85,123.53c0,0,27.84-42.02,59.84-45.63c0,0,0.5-8.12,0-19.14c-1.84,2.71-4.27,4.51-7.11,4.91
			c-7.79,1.22-15.74-8.06-17.77-20.8C929.56,676.33,934.27,665.02,942.12,663.8z"/>
		<path class="st0" d="M1051.34,709.49c-2.84-0.39-5.29-2.16-7.15-4.86c-0.42,11.03,0.14,19.14,0.14,19.14
			c32.03,3.38,60.17,45.2,60.17,45.2c46.46-39.78,18.79-117.11-23.75-123.36c-14.86-2.19-23.74,6.69-29.11,19.12
			c2.04-1.13,4.28-1.67,6.53-1.34c7.79,1.16,12.66,12.43,10.72,25.18C1067.02,701.31,1059.13,710.65,1051.34,709.49z"/>
		<path class="st0" d="M997.1,852.09c2.34,0.47,4.87,0.47,7.21-0.03c30.71-6.46,44.85-24.97,51.37-40.59
			c4.85-11.63-4.24-24.38-16.84-24.34l-38.37,0.14l-38.33,0.14c-13.11,0.05-21.56,13.56-16.23,25.54
			C952.74,828.29,967.06,845.99,997.1,852.09z"/>
	</g>
</g>
</svg>
